<svg width="61" height="50" viewBox="0 0 61 50" fill="none" xmlns="http://www.w3.org/2000/svg">
<path d="M33.4793 10.3574C33.0809 7.80096 31.9727 5.40772 30.2808 3.4502C28.4353 5.26357 27.136 7.55871 26.5309 10.0743C26.4121 12.9918 27.9313 13.9372 29.8496 14.0153C31.7679 14.0935 33.3605 13.2748 33.4793 10.3574Z" fill="#0E0544"/>
<path d="M24.6004 10.8783C23.4734 8.18403 18.7797 5.97363 18.7797 5.97363C17.8754 8.39766 17.6698 11.0269 18.1865 13.562C19.3135 16.2563 21.0901 16.4691 22.8613 15.728C23.3386 15.5802 23.7751 15.3234 24.1361 14.9779C24.4972 14.6324 24.773 14.2077 24.9417 13.7373C25.1104 13.267 25.1673 12.7638 25.1081 12.2676C25.0489 11.7714 24.8751 11.2958 24.6004 10.8783Z" fill="#0E0544"/>
<path d="M17.2569 20.2398C17.6269 19.9039 17.9137 19.4865 18.0946 19.0207C18.2755 18.5549 18.3456 18.0534 18.2994 17.5558C18.2531 17.0582 18.0918 16.5782 17.8281 16.1537C17.5645 15.7292 17.2057 15.3719 16.7802 15.1099C14.564 13.7747 12.0176 13.0886 9.43066 13.1297C9.6373 15.7086 10.5639 18.1777 12.1049 20.2559C12.4064 20.6544 12.7964 20.9774 13.2442 21.1992C13.692 21.4211 14.1852 21.5358 14.6849 21.5342C15.1847 21.5326 15.6772 21.4149 16.1235 21.1902C16.5699 20.9656 16.9579 20.6402 17.2569 20.2398Z" fill="#0E0544"/>
<path d="M9.31955 30.1749C12.1556 30.8682 13.3828 29.5655 13.8387 27.7012C14.2945 25.837 13.8064 24.1139 10.9703 23.4208C8.38562 23.306 5.82065 23.9193 3.56738 25.1907C3.56738 25.1907 6.48301 29.4818 9.31955 30.1749Z" fill="#0E0544"/>
<path d="M3.76758 36.9687C5.96509 38.3342 8.50184 39.0552 11.089 39.0498C13.9522 38.4772 14.5126 36.7779 14.1361 34.8952C13.7595 33.0126 12.5888 31.6594 9.72568 32.2325C6.86251 32.8055 3.76758 36.9687 3.76758 36.9687Z" fill="#0E0544"/>
<path d="M12.3309 40.7411C10.5842 42.6497 9.40843 45.0103 8.9375 47.5543C11.5064 47.8614 14.1099 47.441 16.4517 46.3411C16.9019 46.1243 17.2956 45.8058 17.6016 45.4107C17.9076 45.0156 18.1175 44.5548 18.2148 44.0646C18.312 43.5744 18.2939 43.0683 18.1619 42.5863C18.0299 42.1043 17.7876 41.6596 17.4542 41.2874C17.198 40.8583 16.8455 40.4947 16.4246 40.2252C16.0037 39.9558 15.5259 39.7879 15.0289 39.735C14.532 39.682 14.0295 39.7453 13.5613 39.9199C13.093 40.0946 12.6718 40.3757 12.3309 40.7411Z" fill="#0E0544"/>
<path d="M36.6574 15.3165C37.0814 15.5809 37.5611 15.743 38.0585 15.7901C38.556 15.8372 39.0575 15.7679 39.5236 15.5879C39.9897 15.4078 40.4075 15.1218 40.7441 14.7526C41.0807 14.3833 41.3268 13.9408 41.463 13.46C42.1439 10.9642 42.1105 8.32736 41.3665 5.84961C41.3665 5.84961 36.5388 7.74977 35.2383 10.3642C34.9371 10.7628 34.7327 11.2261 34.6413 11.7173C34.5499 12.2085 34.574 12.7143 34.7116 13.1946C34.8492 13.6749 35.0967 14.1167 35.4344 14.4849C35.7721 14.8532 36.1908 15.1379 36.6574 15.3165Z" fill="#0E0544"/>
<path d="M47.6764 19.8455C49.3516 17.8742 50.4398 15.4722 50.817 12.9129C48.2386 12.7004 45.6522 13.2162 43.3525 14.4015C42.9105 14.6347 42.5289 14.9675 42.2376 15.3736C41.9464 15.7797 41.7536 16.2479 41.6744 16.7414C41.5953 17.2348 41.632 17.7398 41.7817 18.2166C41.9313 18.6934 42.1898 19.1289 42.5367 19.4886C42.8085 19.9079 43.1742 20.2583 43.6047 20.5119C44.0353 20.7656 44.5189 20.9157 45.0174 20.9503C45.516 20.9849 46.0157 20.9031 46.4772 20.7114C46.9387 20.5196 47.3492 20.2232 47.6764 19.8455Z" fill="#0E0544"/>
<path d="M48.981 21.5079C46.14 22.1823 45.6407 23.9006 46.0842 25.7686C46.5278 27.6367 47.746 28.9471 50.587 28.2727C53.4279 27.5984 56.3722 23.3263 56.3722 23.3263C54.1273 22.0401 51.5664 21.4101 48.981 21.5079Z" fill="#0E0544"/>
<path d="M46.6393 32.9641C46.2484 34.8438 46.7959 36.5473 49.6546 37.1418C52.2417 37.1669 54.784 36.4652 56.9918 35.1165C56.9918 35.1165 53.9287 30.9289 51.07 30.3346C48.2112 29.7403 47.03 31.0844 46.6393 32.9641Z" fill="#0E0544"/>
<path d="M49.2186 39.2068C48.8809 38.8384 48.4621 38.5537 47.9954 38.3751C47.5287 38.1964 47.0268 38.1288 46.5295 38.1774C46.0321 38.2261 45.5529 38.3898 45.1297 38.6555C44.7065 38.9213 44.3509 39.2818 44.091 39.7086C43.7543 40.0779 43.5082 40.5205 43.372 41.0013C43.2358 41.4821 43.2133 41.988 43.3062 42.479C43.3992 42.97 43.6051 43.4327 43.9076 43.8304C44.2102 44.2282 44.601 44.5501 45.0494 44.7708C47.3815 45.8911 49.9813 46.334 52.5528 46.0492C52.104 43.5012 50.9487 41.1304 49.2186 39.2068Z" fill="#0E0544"/>
<path d="M35.3987 6.50464C36.5063 6.5497 37.425 6.07702 37.4942 4.3924C37.2642 2.91598 36.6242 1.53381 35.6471 0.40332C34.5816 1.45051 33.8315 2.77582 33.4823 4.22838C33.4137 5.91363 34.291 6.45958 35.3987 6.50464Z" fill="#0E0544"/>
<path d="M24.9148 7.20704C25.1959 7.14186 25.458 7.01221 25.6804 6.82831C25.9027 6.64442 26.0793 6.41133 26.1961 6.14746C26.3129 5.8836 26.3667 5.59619 26.3533 5.30794C26.3399 5.01969 26.2596 4.73851 26.1189 4.48662C25.5822 2.88834 22.9715 1.41895 22.9715 1.41895C22.3495 2.77722 22.1213 4.28285 22.313 5.76443C22.8497 7.36286 23.8639 7.55997 24.9148 7.20704Z" fill="#0E0544"/>
<path d="M12.3975 11.1909C12.5366 11.4437 12.7327 11.6607 12.9701 11.8247C13.2075 11.9887 13.4798 12.0952 13.7655 12.1359C14.0511 12.1766 14.3423 12.1503 14.6161 12.059C14.8898 11.9678 15.1386 11.8141 15.3428 11.6102C15.5821 11.449 15.7807 11.2343 15.9228 10.9832C16.065 10.7321 16.1467 10.4513 16.1617 10.1631C16.1766 9.87492 16.1244 9.58721 16.009 9.32271C15.8936 9.05821 15.7183 8.82417 15.4969 8.63909C14.3416 7.6919 12.9435 7.08812 11.4619 6.89648C11.3656 8.38732 11.6897 9.87527 12.3975 11.1909Z" fill="#0E0544"/>
<path d="M5.51553 21.1056C5.7413 21.2853 6.00577 21.4101 6.28805 21.47C6.57033 21.5299 6.86267 21.5233 7.14197 21.4508C7.42128 21.3783 7.67989 21.2418 7.89737 21.0522C8.11485 20.8625 8.28524 20.6249 8.39508 20.358C8.55386 20.1171 8.65443 19.8425 8.68884 19.556C8.72325 19.2695 8.69056 18.9789 8.59335 18.7072C8.49614 18.4355 8.33707 18.1902 8.12872 17.9905C7.92036 17.7909 7.66844 17.6425 7.39284 17.5569C5.96186 17.1278 4.43915 17.1091 2.99805 17.5029C3.48335 18.9158 4.35561 20.1641 5.51553 21.1056Z" fill="#0E0544"/>
<path d="M6.45307 31.1083C6.5424 30.0033 6.10644 29.0665 4.42607 28.9307C2.94195 29.1015 1.53563 29.6857 0.367188 30.6165C1.37101 31.7227 2.6652 32.5248 4.10244 32.9316C5.78344 33.068 6.36389 32.2132 6.45307 31.1083Z" fill="#0E0544"/>
<path d="M5.82614 40.6265C4.25417 41.236 2.90625 43.9116 2.90625 43.9116C4.29167 44.4706 5.8062 44.6293 7.27741 44.3698C8.84938 43.7604 8.99969 42.7381 8.59902 41.7044C8.521 41.4266 8.37945 41.1707 8.18553 40.957C7.99162 40.7433 7.75066 40.5777 7.48171 40.4731C7.21275 40.3686 6.92316 40.328 6.63583 40.3546C6.3485 40.3812 6.0713 40.4743 5.82614 40.6265Z" fill="#0E0544"/>
<path d="M47.7974 10.2252C48.1403 8.77114 48.0682 7.25 47.5891 5.83496C47.5891 5.83496 44.8411 7.02816 44.1431 8.56294C44.0048 8.80632 43.9187 9.07584 43.8903 9.35433C43.8619 9.63282 43.8918 9.91417 43.9782 10.1805C44.0645 10.4467 44.2054 10.6921 44.3918 10.901C44.5782 11.1098 44.8061 11.2775 45.0609 11.3934C45.3157 11.5093 45.5919 11.5709 45.8718 11.5741C46.1517 11.5774 46.4292 11.5224 46.6867 11.4125C46.9441 11.3025 47.1759 11.1402 47.3671 10.9358C47.5584 10.7314 47.705 10.4894 47.7975 10.2252H47.7974Z" fill="#0E0544"/>
<path d="M51.7668 19.8894C51.9391 20.1209 52.1629 20.3092 52.4204 20.4393C52.678 20.5695 52.9622 20.6379 53.2508 20.6393C53.5394 20.6407 53.8243 20.5749 54.0831 20.4472C54.3419 20.3195 54.5674 20.1334 54.7419 19.9036C55.6337 18.705 56.1711 17.2802 56.2929 15.7913C54.7992 15.7651 53.3281 16.1588 52.0471 16.9276C51.8012 17.0784 51.5936 17.2845 51.4409 17.5293C51.2883 17.7742 51.1946 18.0512 51.1675 18.3385C51.1403 18.6258 51.1803 18.9154 51.2843 19.1846C51.3883 19.4538 51.5535 19.695 51.7668 19.8894Z" fill="#0E0544"/>
<path d="M56.0185 26.9397C54.423 27.4848 54.2313 28.4995 54.5897 29.5492C54.6564 29.8299 54.7875 30.0913 54.9725 30.3127C55.1576 30.5341 55.3916 30.7094 55.6561 30.8248C55.9206 30.9402 56.2084 30.9925 56.4965 30.9776C56.7847 30.9626 57.0655 30.8809 57.3166 30.7387C58.9121 30.1936 60.3676 27.5751 60.3676 27.5751C59.006 26.9603 57.4991 26.7401 56.0185 26.9397Z" fill="#0E0544"/>
<path d="M54.7964 38.4179C53.1263 38.1843 52.4973 39.0036 52.3437 40.1016C52.1901 41.1997 52.5703 42.1603 54.2401 42.3939C55.7317 42.31 57.1697 41.809 58.3905 40.9479C57.453 39.7847 56.2077 38.9081 54.7964 38.4179Z" fill="#0E0544"/>
<path d="M39.6039 43.407C39.3283 43.4926 39.0764 43.6411 38.8681 43.8408C38.6598 44.0404 38.5008 44.2858 38.4036 44.5575C38.3064 44.8292 38.2738 45.1198 38.3082 45.4063C38.3427 45.6928 38.4433 45.9674 38.6021 46.2083C39.2543 47.7631 41.9657 49.0374 41.9657 49.0374C42.4866 47.6372 42.604 46.1188 42.3043 44.6552C41.6522 43.1006 40.6261 42.9782 39.6039 43.407Z" fill="#0E0544"/>
</svg>
